<?xml version="1.0" encoding="utf-8"?>
<!-- Generator: Adobe Illustrator 26.3.1, SVG Export Plug-In . SVG Version: 6.00 Build 0)  -->
<svg version="1.1" id="Layer_1" xmlns="http://www.w3.org/2000/svg" xmlns:xlink="http://www.w3.org/1999/xlink" x="0px" y="0px"
	 viewBox="0 0 500 500" style="enable-background:new 0 0 500 500;" xml:space="preserve">
<style type="text/css">
	.st0{fill:#47B2B2;}
	.st1{fill:#232221;}
	.st2{fill:none;}
</style>
<g>
	<g>
		<polygon class="st0" points="390.85,199.09 367.95,214.75 348.74,173.37 375.48,165.98 		"/>
	</g>
	<g>
		
			<rect x="104.99" y="231.54" transform="matrix(0.907 -0.4211 0.4211 0.907 -105.7064 93.895)" class="st0" width="109.49" height="109.49"/>
	</g>
	<g>
		<g>
			<path class="st1" d="M114.96,352.34c-4.42,2.05-9.38,2.26-13.95,0.59c-4.58-1.67-8.23-5.03-10.28-9.45l12.41-5.76
				c2.29-1.06,3.28-3.77,2.22-6.06c-1.06-2.29-3.77-3.28-6.06-2.22l-12.41,5.76l-3.84-8.28l12.41-5.76
				c2.29-1.06,3.28-3.77,2.22-6.06c-1.06-2.29-3.77-3.28-6.06-2.22l-12.41,5.76l-3.84-8.27l12.41-5.76
				c2.29-1.06,3.28-3.77,2.22-6.06c-1.06-2.29-3.77-3.28-6.06-2.22l-12.41,5.76c-4.24-9.13-0.26-20,8.87-24.24
				c2.29-1.06,3.28-3.77,2.22-6.06s-3.77-3.28-6.06-2.22c-13.69,6.36-19.65,22.66-13.3,36.35l19.21,41.38
				c3.08,6.63,8.56,11.67,15.42,14.18c3.07,1.12,6.25,1.68,9.42,1.68c3.93,0,7.84-0.86,11.51-2.56c2.29-1.06,3.28-3.77,2.22-6.06
				C119.96,352.27,117.25,351.27,114.96,352.34z"/>
			<path class="st1" d="M408,175.57c0.64,0,1.3-0.14,1.92-0.42l24.83-11.53c2.29-1.06,3.28-3.77,2.22-6.06
				c-1.06-2.29-3.77-3.28-6.06-2.22l-24.83,11.53c-2.29,1.06-3.28,3.77-2.22,6.06C404.63,174.59,406.28,175.57,408,175.57z"/>
			<path class="st1" d="M375.58,146.94c0.52,0.19,1.05,0.28,1.57,0.28c1.86,0,3.61-1.15,4.28-3l9.4-25.71
				c0.87-2.37-0.35-4.99-2.72-5.85c-2.37-0.87-4.99,0.35-5.85,2.72l-9.4,25.71C372,143.45,373.22,146.07,375.58,146.94z"/>
			<path class="st1" d="M437.03,217.99l-25.71-9.4c-2.36-0.87-4.99,0.35-5.85,2.72c-0.87,2.37,0.35,4.99,2.72,5.85l25.71,9.4
				c0.52,0.19,1.05,0.28,1.57,0.28c1.86,0,3.61-1.15,4.28-3C440.61,221.47,439.39,218.85,437.03,217.99z"/>
			<path class="st1" d="M309.4,77.81c-1.55-3.34-4.8-5.35-8.48-5.28c-3.68,0.08-6.83,2.25-8.23,5.65
				c-10.02,24.38-39.55,85.28-97.23,124.26c-2.09,1.41-2.64,4.25-1.23,6.33c1.41,2.09,4.25,2.64,6.33,1.23
				c59.71-40.35,90.19-103.13,100.56-128.34l104.44,224.93c0,0,0,0,0,0c-25.4-7.31-91.97-22.18-161.23-2.29
				c-2.42,0.69-3.82,3.22-3.13,5.64c0.7,2.42,3.22,3.82,5.64,3.13c66.99-19.23,131.55-4.8,156.19,2.29
				c0.86,0.25,1.72,0.37,2.58,0.37c2.61,0,5.11-1.13,6.89-3.2c2.35-2.75,2.87-6.49,1.34-9.78L309.4,77.81z"/>
			<path class="st1" d="M261.34,378.54c-11.91-7.92-33.87-24.03-47.18-42.97c-1.45-2.06-4.29-2.56-6.36-1.11
				c-2.06,1.45-2.56,4.29-1.11,6.36c14.17,20.17,37.15,37.06,49.59,45.33c1.04,0.69,1.74,1.75,1.96,2.99
				c0.22,1.24-0.06,2.48-0.8,3.49l-17.24,23.69c-1.37,1.89-3.93,2.44-5.95,1.28c-31.95-18.28-52.43-46.89-61.8-62.32
				c-1.31-2.15-4.11-2.84-6.27-1.53c-2.15,1.31-2.84,4.11-1.53,6.27c9.82,16.18,31.34,46.21,65.07,65.51
				c2.14,1.22,4.48,1.81,6.79,1.81c4.25,0,8.4-1.98,11.07-5.64l17.24-23.69c2.22-3.05,3.07-6.76,2.41-10.47
				C266.56,383.81,264.47,380.62,261.34,378.54z"/>
		</g>
	</g>
</g>
<rect class="st2" width="500" height="500"/>
</svg>
