<?xml version="1.0" encoding="utf-8"?>
<!-- Generator: Adobe Illustrator 26.0.1, SVG Export Plug-In . SVG Version: 6.00 Build 0)  -->
<svg version="1.1" id="Layer_1" xmlns="http://www.w3.org/2000/svg" xmlns:xlink="http://www.w3.org/1999/xlink" x="0px" y="0px"
	 viewBox="0 0 1080 1080" style="enable-background:new 0 0 1080 1080;" xml:space="preserve">
<style type="text/css">
	.st0{fill:#232221;}
	.st1{fill:#FFFFFF;}
	.st2{fill:#47B2B2;}
	.st3{fill:#182848;}
	.st4{fill:#DAF0F0;}
</style>
<path class="st2" d="M800.19,990.14c-13.84,106.38-36.79,88.77-36.79,88.77h-22.33h-22.33c0,0-22.96,17.61-36.79-88.77
	c-1.57-12.03-1.97-23.83-1.55-35.32c-24.46-54.21-69.7-111.16-78.91-122.49h-18.38c10.38,29.05,17.37,64.23,12.48,101.8
	c-12.63,97.12-33.59,81.04-33.59,81.04h-20.38h-20.38c0,0-20.96,16.08-33.59-81.04c-4.89-37.57,2.1-72.75,12.48-101.8h-18.38
	c-9.21,11.33-54.44,68.28-78.91,122.49c0.42,11.49,0.02,23.28-1.55,35.32c-13.84,106.38-36.79,88.77-36.79,88.77H342.2h-22.33
	c0,0-22.96,17.61-36.79-88.77c-13.84-106.38,59.12-195.5,59.12-195.5s7.84,9.61,17.88,26.2c12.42-42.12,32.74-91.67,65.11-128.05
	c-16.51-64.4-30.22-152.95-30.22-269.57C394.97,130.1,541.64,0,541.64,0s146.67,130.1,146.67,423.22
	c0,116.62-13.71,205.18-30.22,269.57c32.37,36.38,52.69,85.93,65.11,128.05c10.04-16.59,17.88-26.2,17.88-26.2
	S814.03,883.76,800.19,990.14z M541.64,226.35c-29.52,0-53.46,23.93-53.46,53.46s23.93,53.46,53.46,53.46s53.46-23.93,53.46-53.46
	S571.16,226.35,541.64,226.35z M541.64,383.03c-29.52,0-53.46,23.93-53.46,53.46s23.93,53.46,53.46,53.46s53.46-23.93,53.46-53.46
	S571.16,383.03,541.64,383.03z M541.64,539.71c-29.52,0-53.46,23.93-53.46,53.46c0,29.52,23.93,53.46,53.46,53.46
	s53.46-23.93,53.46-53.46C595.1,563.65,571.16,539.71,541.64,539.71z"/>
</svg>
