<svg xmlns="http://www.w3.org/2000/svg" width="32" height="32" enable-background="new 0 0 32 32" viewBox="0 0 32 32"><path fill="#47b2b2" d="M26.5 16.3c-.276 0-.5-.224-.5-.5V7.5C26 7.224 26.224 7 26.5 7S27 7.224 27 7.5v8.3C27 16.076 26.776 16.3 26.5 16.3zM5.5 16.3c-.276 0-.5-.224-.5-.5V1.5C5 1.224 5.224 1 5.5 1h15C20.776 1 21 1.224 21 1.5S20.776 2 20.5 2H6v13.8C6 16.076 5.776 16.3 5.5 16.3z"/><path fill="#47b2b2" d="M26.479 8H20.5C20.224 8 20 7.776 20 7.5V4c0-.276.224-.5.5-.5S21 3.724 21 4v3h4.274l-5.129-5.147c-.194-.195-.194-.512.002-.707.195-.193.512-.195.707.002l5.979 6c.143.143.185.357.107.544C26.862 7.878 26.681 8 26.479 8zM29.5 31h-27C2.224 31 2 30.776 2 30.5v-17c0-.191.108-.365.28-.449.17-.084.376-.063.526.055l8.554 6.653c.219.169.258.483.088.701-.171.218-.485.257-.701.088L3 14.522V30h26V14.522l-7.693 5.983c-.217.17-.532.131-.701-.088-.17-.218-.131-.532.088-.701l8.5-6.611c.149-.117.356-.139.526-.055C29.892 13.135 30 13.309 30 13.5v17C30 30.776 29.776 31 29.5 31z"/><path fill="#47b2b2" d="M29.5 29.5c-.1 0-.2-.029-.288-.091L16 20.111 2.788 29.409c-.227.159-.538.104-.697-.121-.158-.227-.104-.538.121-.697l13.5-9.5c.174-.121.402-.121.576 0l13.5 9.5c.226.159.279.471.121.697C29.812 29.426 29.657 29.5 29.5 29.5zM29.5 14c-.111 0-.223-.037-.315-.112l-3.005-2.448c-.215-.175-.247-.489-.072-.703.175-.216.489-.245.703-.072l3.005 2.448c.215.175.247.489.072.703C29.789 13.938 29.645 14 29.5 14zM2.5 14c-.145 0-.289-.063-.388-.185-.175-.214-.143-.528.072-.703l3-2.444c.213-.173.529-.144.703.072.175.214.143.528-.072.703l-3 2.444C2.723 13.963 2.611 14 2.5 14zM17 15.021c-.276 0-.5-.224-.5-.5 0-.275-.225-.5-.5-.5s-.5.225-.5.5c0 .276-.224.5-.5.5s-.5-.224-.5-.5c0-.827.673-1.5 1.5-1.5s1.5.673 1.5 1.5C17.5 14.797 17.276 15.021 17 15.021zM20.5 13.5c-.542 0-1-.458-1-1s.458-1 1-1 1 .458 1 1S21.042 13.5 20.5 13.5zM11.5 13.5c-.542 0-1-.458-1-1s.458-1 1-1 1 .458 1 1S12.042 13.5 11.5 13.5z"/><path fill="#47b2b2" d="M26.5 16.3c-.276 0-.5-.224-.5-.5V7.5C26 7.224 26.224 7 26.5 7S27 7.224 27 7.5v8.3C27 16.076 26.776 16.3 26.5 16.3zM5.5 16.3c-.276 0-.5-.224-.5-.5V1.5C5 1.224 5.224 1 5.5 1h15C20.776 1 21 1.224 21 1.5S20.776 2 20.5 2H6v13.8C6 16.076 5.776 16.3 5.5 16.3z"/><path fill="#47b2b2" d="M26.479 8H20.5C20.224 8 20 7.776 20 7.5V4c0-.276.224-.5.5-.5S21 3.724 21 4v3h4.274l-5.129-5.147c-.194-.195-.194-.512.002-.707.195-.193.512-.195.707.002l5.979 6c.143.143.185.357.107.544C26.862 7.878 26.681 8 26.479 8zM29.5 31h-27C2.224 31 2 30.776 2 30.5v-17c0-.191.108-.365.28-.449.17-.084.376-.063.526.055l8.554 6.653c.219.169.258.483.088.701-.171.218-.485.257-.701.088L3 14.522V30h26V14.522l-7.693 5.983c-.217.17-.532.131-.701-.088-.17-.218-.131-.532.088-.701l8.5-6.611c.149-.117.356-.139.526-.055C29.892 13.135 30 13.309 30 13.5v17C30 30.776 29.776 31 29.5 31z"/><path fill="#47b2b2" d="M29.5 29.5c-.1 0-.2-.029-.288-.091L16 20.111 2.788 29.409c-.227.159-.538.104-.697-.121-.158-.227-.104-.538.121-.697l13.5-9.5c.174-.121.402-.121.576 0l13.5 9.5c.226.159.279.471.121.697C29.812 29.426 29.657 29.5 29.5 29.5zM29.5 14c-.111 0-.223-.037-.315-.112l-3.005-2.448c-.215-.175-.247-.489-.072-.703.175-.216.489-.245.703-.072l3.005 2.448c.215.175.247.489.072.703C29.789 13.938 29.645 14 29.5 14zM2.5 14c-.145 0-.289-.063-.388-.185-.175-.214-.143-.528.072-.703l3-2.444c.213-.173.529-.144.703.072.175.214.143.528-.072.703l-3 2.444C2.723 13.963 2.611 14 2.5 14zM17 15.021c-.276 0-.5-.224-.5-.5 0-.275-.225-.5-.5-.5s-.5.225-.5.5c0 .276-.224.5-.5.5s-.5-.224-.5-.5c0-.827.673-1.5 1.5-1.5s1.5.673 1.5 1.5C17.5 14.797 17.276 15.021 17 15.021zM20.5 13.5c-.542 0-1-.458-1-1s.458-1 1-1 1 .458 1 1S21.042 13.5 20.5 13.5zM11.5 13.5c-.542 0-1-.458-1-1s.458-1 1-1 1 .458 1 1S12.042 13.5 11.5 13.5z"/></svg>